<?xml version="1.0" encoding="utf-8"?>
<svg xmlns="http://www.w3.org/2000/svg" width="217" height="56" viewBox="0 0 217 56" fill="none">
<g clip-path="url(#clip0_5005_9590)">
<path d="M217 0H0V56H211.374L217 0Z" fill="#FE20A7"/>
<path fill-rule="evenodd" clip-rule="evenodd" d="M11.4999 42.1667C11.4999 43.2713 12.3954 44.1667 13.4999 44.1667H16.4999C17.6045 44.1667 18.4999 43.2713 18.4999 42.1667V32.5C18.4999 31.8557 19.0223 31.3334 19.6666 31.3334C20.3109 31.3334 20.8333 31.8557 20.8333 32.5V42.1667C20.8333 43.2713 21.7287 44.1667 22.8333 44.1667H25.8333C26.9379 44.1667 27.8333 43.2713 27.8333 42.1667V31.9389C27.8333 31.5441 27.7164 31.158 27.4974 30.8295L26.2396 28.9428C25.7917 28.271 25.7917 27.3958 26.2396 26.724L27.4974 24.8372C27.7164 24.5087 27.8333 24.1226 27.8333 23.7278V13.5C27.8333 12.3954 26.9379 11.5 25.8333 11.5H13.4999C12.3954 11.5 11.4999 12.3954 11.4999 13.5V42.1667ZM18.4999 23.1667C18.4999 23.811 19.0223 24.3333 19.6666 24.3333C20.3109 24.3333 20.8333 23.811 20.8333 23.1667V19.6667C20.8333 19.0223 20.3109 18.5 19.6666 18.5C19.0223 18.5 18.4999 19.0223 18.4999 19.6667V23.1667Z" fill="#FFF00D"/>
<path fill-rule="evenodd" clip-rule="evenodd" d="M46.5011 42.1667C46.5011 43.2713 45.6056 44.1667 44.5011 44.1667H32.1677C31.0632 44.1667 30.1677 43.2713 30.1677 42.1667V13.5C30.1677 12.3954 31.0632 11.5 32.1677 11.5H44.5011C45.6056 11.5 46.5011 12.3954 46.5011 13.5V42.1667ZM39.5011 35C39.5011 35.6444 38.9787 36.1667 38.3344 36.1667C37.6901 36.1667 37.1677 35.6444 37.1677 35V19.6667C37.1677 19.0223 37.6901 18.5 38.3344 18.5C38.9787 18.5 39.5011 19.0223 39.5011 19.6667V35Z" fill="#FFF00D"/>
<path d="M95.5 11.5C94.3954 11.5 93.5 12.3954 93.5 13.5V17.0417C93.5 17.8471 94.1529 18.5 94.9583 18.5C95.7638 18.5 96.4167 19.1529 96.4167 19.9583V42.1667C96.4167 43.2713 97.3121 44.1667 98.4167 44.1667H101.417C102.521 44.1667 103.417 43.2713 103.417 42.1667V20.5C103.417 19.3954 104.312 18.5 105.417 18.5H106.583C107.688 18.5 108.583 17.6046 108.583 16.5V13.5C108.583 12.3954 107.688 11.5 106.583 11.5H95.5Z" fill="#FFF00D"/>
<path d="M70 13.5C70 12.3954 69.1046 11.5 68 11.5H65C63.8954 11.5 63 12.3954 63 13.5V42.1667C63 43.2713 63.8954 44.1667 65 44.1667H68C69.1046 44.1667 70 43.2713 70 42.1667V32.5C70 31.8557 70.5223 31.3334 71.1667 31.3334C71.811 31.3334 72.3333 31.8557 72.3333 32.5V42.1667C72.3333 43.2713 73.2288 44.1667 74.3333 44.1667H77.3334C78.4379 44.1667 79.3334 43.2713 79.3334 42.1667V31.9389C79.3334 31.5441 79.2165 31.158 78.9975 30.8295L77.7396 28.9428C77.2917 28.271 77.2917 27.3958 77.7396 26.724L78.9975 24.8372C79.2165 24.5087 79.3334 24.1226 79.3334 23.7278V13.5C79.3334 12.3954 78.4379 11.5 77.3334 11.5H74.3333C73.2288 11.5 72.3333 12.3954 72.3333 13.5V23.1667C72.3333 23.811 71.811 24.3333 71.1667 24.3333C70.5223 24.3333 70 23.811 70 23.1667V13.5Z" fill="#FFF00D"/>
<path d="M81.6661 42.1667C81.6661 43.2713 82.5615 44.1667 83.6661 44.1667H92.4994C93.604 44.1667 94.4994 43.2713 94.4994 42.1667V32.1667C94.4994 31.0621 93.604 30.1667 92.4994 30.1667H89.8328C89.1884 30.1667 88.6661 29.6444 88.6661 29C88.6661 28.3557 89.1884 27.8334 89.8328 27.8334H92.4994C93.604 27.8334 94.4994 26.9379 94.4994 25.8334V22.8333C94.4994 21.7288 93.604 20.8333 92.4994 20.8333H89.8328C89.1884 20.8333 88.6661 20.311 88.6661 19.6667C88.6661 19.0223 89.1884 18.5 89.8328 18.5H90.1244C90.9298 18.5 91.5828 17.8471 91.5828 17.0417V13.5C91.5828 12.3954 90.6873 11.5 89.5828 11.5H83.6661C82.5615 11.5 81.6661 12.3954 81.6661 13.5V42.1667Z" fill="#FFF00D"/>
<path d="M49 42.1667C49 43.2713 49.8954 44.1667 51 44.1667H58.8334C59.9379 44.1667 60.8334 43.2713 60.8334 42.1667V38.1667C60.8334 37.0621 59.9379 36.1667 58.8334 36.1667H58C56.8954 36.1667 56 35.2713 56 34.1667V20.5C56 19.3954 56.8954 18.5 58 18.5H58.8334C59.9379 18.5 60.8334 17.6046 60.8334 16.5V13.5C60.8334 12.3954 59.9379 11.5 58.8334 11.5H51C49.8954 11.5 49 12.3954 49 13.5V42.1667Z" fill="#FFF00D"/>
<path fill-rule="evenodd" clip-rule="evenodd" d="M120 42.1667C120 43.2713 119.105 44.1667 118 44.1667H115C113.895 44.1667 113 43.2713 113 42.1667V13.5C113 12.3954 113.895 11.5 115 11.5H127.333C128.438 11.5 129.333 12.3954 129.333 13.5V23.7278C129.333 24.1226 129.216 24.5087 128.997 24.8372L127.74 26.724C127.292 27.3958 127.292 28.271 127.74 28.9428L128.997 30.8295C129.216 31.158 129.333 31.5441 129.333 31.9389V42.1667C129.333 43.2713 128.438 44.1667 127.333 44.1667H124.333C123.229 44.1667 122.333 43.2713 122.333 42.1667V32.5C122.333 31.8557 121.811 31.3334 121.167 31.3334C120.522 31.3334 120 31.8557 120 32.5V42.1667ZM122.333 23.1667C122.333 23.811 121.811 24.3333 121.167 24.3333C120.522 24.3333 120 23.811 120 23.1667V19.6667C120 19.0223 120.522 18.5 121.167 18.5C121.811 18.5 122.333 19.0223 122.333 19.6667V23.1667Z" fill="#FFF00D"/>
<path d="M161.5 13.5C161.5 12.3954 160.605 11.5 159.5 11.5H156.5C155.395 11.5 154.5 12.3954 154.5 13.5V42.1667C154.5 43.2713 155.395 44.1667 156.5 44.1667H159.5C160.605 44.1667 161.5 43.2713 161.5 42.1667V32.5C161.5 31.8557 162.022 31.3334 162.667 31.3334C163.311 31.3334 163.833 31.8557 163.833 32.5V42.1667C163.833 43.2713 164.729 44.1667 165.833 44.1667H168.833C169.938 44.1667 170.833 43.2713 170.833 42.1667V13.5C170.833 12.3954 169.938 11.5 168.833 11.5H165.833C164.729 11.5 163.833 12.3954 163.833 13.5V23.1667C163.833 23.811 163.311 24.3333 162.667 24.3333C162.022 24.3333 161.5 23.811 161.5 23.1667V13.5Z" fill="#FFF00D"/>
<path d="M173.166 42.1667C173.166 43.2713 174.062 44.1667 175.166 44.1667H183.999C185.104 44.1667 185.999 43.2713 185.999 42.1667V32.1667C185.999 31.0621 185.104 30.1667 183.999 30.1667H181.333C180.688 30.1667 180.166 29.6444 180.166 29C180.166 28.3557 180.688 27.8334 181.333 27.8334H183.999C185.104 27.8334 185.999 26.9379 185.999 25.8334V22.8333C185.999 21.7288 185.104 20.8333 183.999 20.8333H181.333C180.688 20.8333 180.166 20.311 180.166 19.6667C180.166 19.0223 180.688 18.5 181.333 18.5H181.624C182.43 18.5 183.083 17.8471 183.083 17.0417V13.5C183.083 12.3954 182.187 11.5 181.083 11.5H175.166C174.062 11.5 173.166 12.3954 173.166 13.5V42.1667Z" fill="#FFF00D"/>
<path d="M188 42.1667C188 43.2713 188.895 44.1667 190 44.1667H200C201.105 44.1667 202 43.2713 202 42.1667V22.835C202 21.7304 201.105 20.835 200 20.835H196.168C195.523 20.835 195 20.3123 195 19.6675C195 19.0227 195.523 18.5 196.168 18.5H202.915C204.02 18.5 204.915 17.6046 204.915 16.5V13.5C204.915 12.3954 204.02 11.5 202.915 11.5H190C188.895 11.5 188 12.3954 188 13.5V25.835C188 26.9396 188.895 27.835 190 27.835H194.335C194.978 27.835 195.5 28.3566 195.5 29C195.5 29.6434 194.978 30.165 194.335 30.165H190C188.895 30.165 188 31.0604 188 32.165V42.1667Z" fill="#FFF00D"/>
<path d="M152.333 42.1667C152.333 43.2713 151.438 44.1667 150.333 44.1667H142.5C141.395 44.1667 140.5 43.2713 140.5 42.1667V13.5C140.5 12.3954 141.395 11.5 142.5 11.5H150.333C151.438 11.5 152.333 12.3954 152.333 13.5V16.5C152.333 17.6046 151.438 18.5 150.333 18.5H149.5C148.395 18.5 147.5 19.3954 147.5 20.5V34.1667C147.5 35.2713 148.396 36.1667 149.5 36.1667H150.333C151.438 36.1667 152.333 37.0621 152.333 38.1667V42.1667Z" fill="#FFF00D"/>
<path d="M131.5 42.1667C131.5 43.2713 132.395 44.1667 133.5 44.1667H136.5C137.605 44.1667 138.5 43.2713 138.5 42.1667V13.5C138.5 12.3954 137.605 11.5 136.5 11.5H133.5C132.395 11.5 131.5 12.3954 131.5 13.5V42.1667Z" fill="#FFF00D"/>
</g>
<defs>
<clipPath id="clip0_5005_9590">
<rect width="217" height="56" fill="white"/>
</clipPath>
</defs>
</svg>