<?xml version="1.0" encoding="utf-8"?>
<svg xmlns="http://www.w3.org/2000/svg" width="49" height="25" viewBox="0 0 49 25" fill="none">
<g clip-path="url(#clip0_365:2824)">
<path d="M30.0381 6.3175C29.983 5.95201 29.6851 5.33182 28.7364 5.33182C28.0855 5.33182 27.6663 5.74153 27.6663 6.17344C27.6663 6.55018 27.8979 6.8269 28.4386 6.92662L29.4866 7.126C30.9761 7.4029 31.7481 8.36638 31.7481 9.4849C31.7481 10.7144 30.7222 11.9657 28.8578 11.9657C26.6955 11.9657 25.7687 10.5592 25.6584 9.45178L27.258 9.06406C27.3243 9.78382 27.8096 10.4153 28.8797 10.4153C29.5639 10.4153 29.9828 10.0829 29.9828 9.59566C29.9828 9.1969 29.663 8.9089 29.1445 8.80924L28.0744 8.60986C26.7506 8.35516 25.9453 7.46914 25.9453 6.30628C25.9453 4.82211 27.2471 3.78125 28.7474 3.78125C30.7001 3.78125 31.4393 4.95523 31.6048 5.87436L30.0381 6.3175Z" fill="#798291"/>
<path d="M36.7559 6.3175C36.7008 5.95201 36.4029 5.33182 35.4542 5.33182C34.8032 5.33182 34.3841 5.74153 34.3841 6.17344C34.3841 6.55018 34.6157 6.8269 35.1564 6.92662L36.2044 7.126C37.6937 7.4029 38.4659 8.36638 38.4659 9.4849C38.4659 10.7144 37.44 11.9657 35.5754 11.9657C33.4133 11.9657 32.4866 10.5592 32.3762 9.45178L33.9758 9.06406C34.0421 9.78382 34.5274 10.4153 35.5975 10.4153C36.2815 10.4153 36.7006 10.0829 36.7006 9.59566C36.7006 9.1969 36.3808 8.9089 35.8623 8.80924L34.7922 8.60986C33.4684 8.35516 32.6632 7.46914 32.6632 6.30628C32.6632 4.82211 33.9649 3.78125 35.4652 3.78125C37.4179 3.78125 38.1571 4.95523 38.3225 5.87436L36.7559 6.3175Z" fill="#798291"/>
<path d="M39.657 3.95V11.8022H44.776V10.1299H41.4002V3.95H39.657Z" fill="#798291"/>
<path d="M26.8217 14.8678C26.8046 14.7543 26.7119 14.5614 26.4172 14.5614C26.215 14.5614 26.0848 14.6887 26.0848 14.8231C26.0848 14.9401 26.1568 15.0261 26.3247 15.0571L26.6503 15.119C27.1131 15.205 27.353 15.5044 27.353 15.852C27.353 16.234 27.0344 16.6228 26.4549 16.6228C25.7831 16.6228 25.4951 16.1857 25.4609 15.8415L25.9579 15.7211C25.9785 15.9448 26.1293 16.141 26.4619 16.141C26.6743 16.141 26.8046 16.0377 26.8046 15.8863C26.8046 15.7624 26.7053 15.6729 26.5441 15.642L26.2116 15.5801C25.8002 15.5009 25.5501 15.2257 25.5501 14.8643C25.5501 14.4032 25.9546 14.0797 26.4207 14.0797C27.0275 14.0797 27.257 14.4444 27.3085 14.7301L26.8217 14.8678Z" fill="#798291"/>
<path d="M27.7226 14.1313V16.571H29.2652V16.0549H28.2643V15.5869H29.1694V15.1086H28.2643V14.644H29.2619V14.1313H27.7226Z" fill="#798291"/>
<path d="M29.5765 15.3564C29.5765 14.5957 30.1524 14.0797 30.831 14.0797C31.5611 14.0797 31.8834 14.5512 31.9623 14.9022L31.4515 15.0639C31.4138 14.8953 31.2596 14.6096 30.831 14.6096C30.5056 14.6096 30.1388 14.8436 30.1388 15.3564C30.1388 15.8141 30.4747 16.079 30.838 16.079C31.2596 16.079 31.4276 15.7969 31.4756 15.6213L31.9932 15.7693C31.9143 16.1067 31.5922 16.6228 30.838 16.6228C30.1388 16.6228 29.5765 16.1169 29.5765 15.3564Z" fill="#798291"/>
<path d="M32.3117 14.1313V15.6901C32.3117 16.3027 32.7403 16.6262 33.2749 16.6262C33.8096 16.6262 34.2382 16.3027 34.2382 15.6902V14.1313H33.6965V15.6455C33.6965 15.9414 33.532 16.0894 33.2749 16.0894C33.0179 16.0894 32.8534 15.9414 32.8534 15.6455V14.1313H32.3117Z" fill="#798291"/>
<path fill-rule="evenodd" clip-rule="evenodd" d="M35.4782 15.6625H35.2862V16.5712H34.7445V14.1313H35.7077C36.1876 14.1313 36.4961 14.4617 36.4961 14.8952C36.4961 15.2256 36.3145 15.4767 36.0163 15.5834L36.5099 16.571H35.9135L35.4782 15.6625ZM35.6051 15.1946C35.8279 15.1946 35.9478 15.0707 35.9478 14.8987C35.9478 14.7164 35.8279 14.6028 35.6051 14.6028H35.2863V15.1947L35.6051 15.1946Z" fill="#798291"/>
<path d="M36.8961 14.1313V16.571H38.4386V16.0549H37.4377V15.5869H38.3428V15.1086H37.4377V14.644H38.4353V14.1313H36.8961Z" fill="#798291"/>
<path d="M25.6355 20.6984V18.2586H27.1748V18.7714H26.1772V19.2359H27.0823V19.7142H26.1772V20.1823H27.1781V20.6984H25.6355Z" fill="#798291"/>
<path d="M28.1719 19.0949L29.1728 20.6985H29.7452V18.2586H29.2036V19.7419L28.2917 18.2586H27.6336V20.6985H28.1719V19.0949Z" fill="#798291"/>
<path d="M30.1285 19.4843C30.1285 18.7237 30.7043 18.2077 31.383 18.2077C32.1131 18.2077 32.4354 18.6792 32.5142 19.0301L32.0035 19.1918C31.9658 19.0232 31.8115 18.7376 31.383 18.7376C31.0575 18.7376 30.6907 18.9716 30.6907 19.4843C30.6907 19.9421 31.0267 20.207 31.39 20.207C31.8115 20.207 31.9796 19.9249 32.0276 19.7492L32.5451 19.8973C32.4662 20.2346 32.1441 20.7507 31.39 20.7507C30.6907 20.7507 30.1285 20.2448 30.1285 19.4843Z" fill="#798291"/>
<path fill-rule="evenodd" clip-rule="evenodd" d="M33.4557 19.79H33.6478L34.083 20.6984H34.6795L34.1858 19.7107C34.484 19.604 34.6657 19.3529 34.6657 19.0226C34.6657 18.589 34.3571 18.2586 33.8773 18.2586H32.914V20.6985H33.4557V19.79ZM34.1174 19.0261C34.1174 19.1981 33.9974 19.322 33.7745 19.322L33.4558 19.3221V18.7302H33.7745C33.9974 18.7302 34.1174 18.8437 34.1174 19.0261Z" fill="#798291"/>
<path d="M34.8019 18.2586H35.4361L35.933 19.1636L36.4369 18.2586H37.0401L36.1866 19.68V20.6985H35.645V19.68L34.8019 18.2586Z" fill="#798291"/>
<path fill-rule="evenodd" clip-rule="evenodd" d="M37.8795 20.6985V19.8211H38.2532C38.7467 19.8211 39.0862 19.501 39.0862 19.0399C39.0862 18.5855 38.7467 18.2586 38.2532 18.2586H37.3379V20.6985H37.8795ZM38.5445 19.0434C38.5445 19.2326 38.404 19.3531 38.1983 19.3531H37.883V18.7302H38.1983C38.404 18.7302 38.5445 18.8472 38.5445 19.0434Z" fill="#798291"/>
<path d="M40.5287 18.7782V20.6985H39.9871V18.7782H39.2398V18.2586H41.2793V18.7782H40.5287Z" fill="#798291"/>
<path d="M41.6082 18.2586V20.6985H42.1567V18.2586H41.6082Z" fill="#798291"/>
<path fill-rule="evenodd" clip-rule="evenodd" d="M43.8046 18.2077C44.4868 18.2077 45.0661 18.7066 45.0661 19.481C45.0661 20.2518 44.4868 20.7507 43.8046 20.7507C43.119 20.7507 42.5398 20.2518 42.5398 19.481C42.5397 18.7066 43.119 18.2077 43.8046 18.2077ZM43.8046 20.2139C44.1405 20.2139 44.5039 19.9868 44.5039 19.4774C44.5039 18.9681 44.1405 18.7376 43.8046 18.7376C43.4652 18.7376 43.1019 18.9683 43.1019 19.4774C43.1019 19.9868 43.4652 20.2139 43.8046 20.2139Z" fill="#798291"/>
<path d="M45.9914 19.0949L46.9924 20.6985H47.5647V18.2586H47.0231V19.7419L46.1113 18.2586H45.4531V20.6985H45.9914V19.0949Z" fill="#798291"/>
<path d="M8.78984 6.26318C8.78984 5.35054 9.5294 4.60811 10.4383 4.60811C11.3472 4.60811 12.0868 5.3507 12.0868 6.26336V8.57612H8.78984V6.26318Z" fill="#D3D8E1"/>
<path fill-rule="evenodd" clip-rule="evenodd" d="M0.5 14.0415V0.019043H20.3775V14.0415C20.3775 19.5519 15.9279 24.019 10.4388 24.019C4.94973 24.019 0.5 19.5519 0.5 14.0415ZM4.53454 17.6158H16.343V8.57456H14.1882V6.26162C14.1882 4.186 12.5063 2.49734 10.4388 2.49734C8.37128 2.49734 6.68936 4.186 6.68936 6.26162V8.57456H4.53454V17.6158Z" fill="#D3D8E1"/>
<path d="M9.22691 15.3048C8.88173 14.9286 6.96995 12.7738 6.86495 12.4798C6.79739 12.2906 6.85925 11.8138 7.23149 11.496C7.60367 11.1781 8.00723 11.0991 8.13713 11.1792C8.48303 11.3924 10.0715 12.8849 10.1819 13.001C10.2921 13.1169 10.3775 13.1228 10.4492 12.9669C10.9817 11.8086 12.107 9.87885 12.7967 8.77863C13.34 7.91181 14.4908 6.18015 16.5248 4.66006C17.3819 4.01935 18.3861 3.83829 18.7473 3.84413C19.0316 3.84867 19.1434 4.01221 18.9349 4.16375C18.4365 4.52605 17.6953 5.28016 17.0728 6.06513C16.0958 7.29705 15.2561 8.62227 14.4695 9.98109C13.7366 11.2472 11.953 14.4263 11.4771 15.2258C11.2046 15.6576 9.76349 15.8436 9.22691 15.3048Z" fill="#798291"/>
</g>
<defs>
<clipPath id="clip0_365:2824">
<rect width="48" height="24" fill="white" transform="translate(0.5 0.019043)"/>
</clipPath>
</defs>
</svg>